<?xml version="1.0" encoding="UTF-8" standalone="no"?>
<svg
   xmlns:dc="http://purl.org/dc/elements/1.1/"
   xmlns:cc="http://creativecommons.org/ns#"
   xmlns:rdf="http://www.w3.org/1999/02/22-rdf-syntax-ns#"
   xmlns:svg="http://www.w3.org/2000/svg"
   xmlns="http://www.w3.org/2000/svg"
   xmlns:xlink="http://www.w3.org/1999/xlink"
   xmlns:sodipodi="http://sodipodi.sourceforge.net/DTD/sodipodi-0.dtd"
   xmlns:inkscape="http://www.inkscape.org/namespaces/inkscape"
   width="3.7124295in"
   height="3.7124295in"
   viewBox="0 0 18.859142 18.859142"
   version="1.1"
   id="svg8"
   sodipodi:docname="logo11.svg"
   inkscape:version="1.0 (4035a4fb49, 2020-05-01)"
   inkscape:export-filename="/home/stark/Novo documento 1.2020_07_07_20_50_32.0.png"
   inkscape:export-xdpi="932.08002"
   inkscape:export-ydpi="932.08002">
  <defs
     id="defs2">
    <linearGradient
       id="linearGradient1028"
       inkscape:collect="always">
      <stop
         id="stop3046"
         offset="0"
         style="stop-color:#0d98ba;stop-opacity:1" />
      <stop
         id="stop3048"
         offset="1"
         style="stop-color:#00a59c;stop-opacity:1" />
    </linearGradient>
    <clipPath
       id="clip3">
      <path
         id="path40"
         d="m 30,1.511719 h 3.226562 V 10 H 30 Z m 0,0" />
    </clipPath>
    <linearGradient
       inkscape:collect="always"
       xlink:href="#linearGradient1028"
       id="linearGradient3044"
       x1="35.388023"
       y1="107.54323"
       x2="46.873657"
       y2="107.54323"
       gradientUnits="userSpaceOnUse" />
    <linearGradient
       inkscape:collect="always"
       xlink:href="#linearGradient1028"
       id="linearGradient939"
       gradientUnits="userSpaceOnUse"
       x1="35.388023"
       y1="107.54323"
       x2="46.873657"
       y2="107.54323" />
  </defs>
  <sodipodi:namedview
     id="base"
     pagecolor="#ffffff"
     bordercolor="#666666"
     borderopacity="1.0"
     inkscape:pageopacity="0.0"
     inkscape:pageshadow="2"
     inkscape:zoom="1.1635234"
     inkscape:cx="95.119849"
     inkscape:cy="211.80856"
     inkscape:document-units="mm"
     inkscape:current-layer="layer1"
     inkscape:document-rotation="0"
     showgrid="false"
     inkscape:snap-bbox="true"
     inkscape:bbox-paths="true"
     inkscape:bbox-nodes="true"
     inkscape:snap-bbox-edge-midpoints="true"
     inkscape:snap-bbox-midpoints="true"
     showguides="true"
     inkscape:guide-bbox="true"
     inkscape:window-width="1920"
     inkscape:window-height="1024"
     inkscape:window-x="0"
     inkscape:window-y="28"
     inkscape:window-maximized="1"
     fit-margin-top="0"
     fit-margin-left="0"
     fit-margin-right="0"
     fit-margin-bottom="0"
     units="in"
     scale-x="0.2">
    <sodipodi:guide
       position="1.851046,-26.859524"
       orientation="1,0"
       id="guide131" />
    <sodipodi:guide
       position="4.0930034,-24.48904"
       orientation="1,0"
       id="guide133" />
    <sodipodi:guide
       position="1.4833087,-26.323147"
       orientation="0,-1"
       id="guide135" />
    <sodipodi:guide
       position="1.524451,-25.542257"
       orientation="1,0"
       id="guide137" />
    <sodipodi:guide
       position="4.4195983,-25.97592"
       orientation="1,0"
       id="guide141" />
    <sodipodi:guide
       position="1.4322049,15.561706"
       orientation="1,0"
       id="guide877" />
    <sodipodi:guide
       position="4.6590875,15.289786"
       orientation="1,0"
       id="guide879" />
    <sodipodi:guide
       position="1.8459362,15.289823"
       orientation="0,-1"
       id="guide887" />
    <sodipodi:guide
       position="2.9720299,15.289823"
       orientation="1,0"
       id="guide889" />
    <sodipodi:guide
       position="1.4833281,16.293809"
       orientation="0,-1"
       id="guide891" />
    <sodipodi:guide
       position="1.4833281,14.285747"
       orientation="0,-1"
       id="guide893" />
    <sodipodi:guide
       position="9.4295701,9.4295766"
       orientation="0,-1"
       id="guide859" />
    <sodipodi:guide
       position="9.4295697,9.4295768"
       orientation="1,0"
       id="guide861" />
  </sodipodi:namedview>
  <metadata
     id="metadata5">
    <rdf:RDF>
      <cc:Work
         rdf:about="">
        <dc:format>image/svg+xml</dc:format>
        <dc:type
           rdf:resource="http://purl.org/dc/dcmitype/StillImage" />
        <dc:title />
      </cc:Work>
    </rdf:RDF>
  </metadata>
  <g
     inkscape:label="Layer 1"
     inkscape:groupmode="layer"
     id="layer1"
     transform="translate(-31.701288,-98.113481)">
    <g
       aria-label="ket"
       id="text12"
       style="font-size:11.0333px;line-height:1.25;font-family:Flux;-inkscape-font-specification:Flux;opacity:1;fill:#40e0d0;fill-opacity:1;stroke:url(#linearGradient3044);stroke-width:0.05;stroke-linecap:round;stroke-linejoin:round;stroke-miterlimit:4;stroke-dasharray:none;stroke-dashoffset:0;stroke-opacity:1;paint-order:stroke markers fill">
      <path
         id="path935"
         style="fill:#40e0d0;fill-opacity:1;stroke:url(#linearGradient939);stroke-width:0.05;stroke-linecap:round;stroke-linejoin:round;stroke-miterlimit:4;stroke-dasharray:none;stroke-dashoffset:0;stroke-opacity:1;paint-order:stroke markers fill"
         sodipodi:type="inkscape:offset"
         inkscape:radius="0"
         inkscape:original="M 36.332031 103.65039 L 35.525391 103.92578 L 35.525391 111.33984 L 36.332031 111.33984 L 36.332031 109.15625 L 36.783203 108.74805 L 38.472656 111.33984 L 39.419922 111.33984 L 37.390625 108.18555 L 38.990234 106.74023 L 38.59375 106.36523 L 36.332031 108.41602 L 36.332031 103.65039 z M 45.830078 104.875 L 45.025391 105.16211 L 45.025391 106.50781 L 44.474609 106.50781 L 44.474609 107.02734 L 45.025391 107.02734 L 45.025391 110.19336 C 45.025391 111.02085 45.666098 111.50555 46.736328 111.40625 L 46.736328 110.98828 C 46.17363 110.96618 45.830078 110.8118 45.830078 110.17188 L 45.830078 107.02734 L 46.736328 107.02734 L 46.736328 106.50781 L 45.830078 106.50781 L 45.830078 104.875 z M 41.759766 106.41992 C 40.347504 106.41992 39.829393 107.73312 39.818359 109.00195 C 39.818359 109.81841 40.13837 110.57888 40.667969 111.03125 C 41.2417 111.51671 42.146699 111.50524 42.841797 111.30664 C 43.161762 111.20734 43.414203 111.06394 43.667969 110.89844 L 43.480469 110.51367 C 43.072237 110.71227 42.674712 110.89913 42.123047 110.91016 C 41.218317 110.94326 40.579702 110.09374 40.667969 108.83594 L 43.625 108.83594 C 43.60293 107.34644 43.105829 106.41992 41.759766 106.41992 z M 41.792969 106.91602 C 42.510134 106.91602 42.818359 107.66692 42.818359 108.37305 L 42.808594 108.36133 L 40.689453 108.36133 C 40.744623 107.66623 41.020638 106.91602 41.792969 106.91602 z "
         d="m 36.332031,103.65039 -0.80664,0.27539 v 7.41406 h 0.80664 v -2.18359 l 0.451172,-0.4082 1.689453,2.59179 h 0.947266 l -2.029297,-3.15429 1.599609,-1.44532 -0.396484,-0.375 -2.261719,2.05079 z m 9.498047,1.22461 -0.804687,0.28711 v 1.3457 h -0.550782 v 0.51953 h 0.550782 v 3.16602 c 0,0.82749 0.640707,1.31219 1.710937,1.21289 v -0.41797 c -0.562698,-0.0221 -0.90625,-0.17648 -0.90625,-0.8164 v -3.14454 h 0.90625 v -0.51953 h -0.90625 z m -4.070312,1.54492 c -1.412262,0 -1.930373,1.3132 -1.941407,2.58203 0,0.81646 0.320011,1.57693 0.84961,2.0293 0.573731,0.48546 1.47873,0.47399 2.173828,0.27539 0.319965,-0.0993 0.572406,-0.2427 0.826172,-0.4082 l -0.1875,-0.38477 c -0.408232,0.1986 -0.805757,0.38546 -1.357422,0.39649 -0.90473,0.0331 -1.543345,-0.81642 -1.455078,-2.07422 H 43.625 c -0.02207,-1.4895 -0.519171,-2.41602 -1.865234,-2.41602 z m 0.0332,0.4961 c 0.717165,0 1.02539,0.7509 1.02539,1.45703 l -0.0098,-0.0117 h -2.119141 c 0.05517,-0.6951 0.331185,-1.44531 1.103516,-1.44531 z" />
    </g>
    <path
       id="path49"
       d="m 33.687255,112.51343 h -0.02218 c -0.08335,0 -0.144472,-0.05 -0.183341,-0.14435 V 107.535 l 0.0056,-4.83406 c 0.07221,-0.0835 0.138907,-0.12782 0.200034,-0.12782 0.08891,0 0.15556,0.05 0.205598,0.15 v 9.64591 c -0.05556,0.0943 -0.116693,0.14436 -0.188905,0.14436 z m 0,0"
       style="fill:#0d98ba;fill-opacity:1;fill-rule:nonzero;stroke:#0d98ba;stroke-width:0.1;stroke-linejoin:round;stroke-miterlimit:4;stroke-dasharray:none;stroke-opacity:1;paint-order:stroke markers fill" />
    <path
       id="path61"
       d="m 47.221261,102.74796 c 0.0056,-0.0443 0.02782,-0.0835 0.06112,-0.11649 0.03347,-0.0322 0.08334,-0.0556 0.144472,-0.0612 0.07225,0 0.127778,0.0322 0.177816,0.10007 0.01654,0.0443 0.338941,0.86121 0.966818,2.44479 0.622318,1.58914 0.939033,2.39483 0.944594,2.42819 0.0056,0.0322 -0.305595,0.84456 -0.933481,2.42814 -0.633434,1.58358 -0.961258,2.40036 -0.977931,2.44483 -0.04999,0.0666 -0.105566,0.0999 -0.177816,0.0999 -0.05556,0 -0.10004,-0.0162 -0.133342,-0.05 -0.03347,-0.0322 -0.05556,-0.0722 -0.07226,-0.12782 0,-0.0322 0.311159,-0.83902 0.927921,-2.41702 0.622321,-1.57248 0.93348,-2.36149 0.93348,-2.37814 0,-0.0127 -0.311159,-0.80571 -0.93348,-2.37815 -0.616758,-1.57806 -0.927918,-2.38372 -0.927918,-2.41706 z m 0,0"
       style="fill:#00a59c;fill-opacity:1;fill-rule:nonzero;stroke:#00a59c;stroke-width:0.1;stroke-linejoin:round;stroke-miterlimit:4;stroke-dasharray:none;stroke-opacity:1;paint-order:stroke markers fill" />
    <text
       xml:space="preserve"
       style="font-size:10.5833px;line-height:1.25;font-family:Flux;-inkscape-font-specification:Flux;stroke:none;stroke-width:0.264583;stroke-opacity:1"
       x="66.510773"
       y="110.62945"
       id="text127"><tspan
         sodipodi:role="line"
         id="tspan125"
         x="66.510773"
         y="110.62945"
         style="stroke:none;stroke-width:0.264583;stroke-opacity:1" /></text>
    <path
       style="fill:#02feb8;fill-opacity:1;stroke:none;stroke-width:0.0726727;stroke-opacity:1"
       d=""
       id="path1004"
       transform="scale(0.26458333)" />
  </g>
</svg>
